<svg xmlns="http://www.w3.org/2000/svg" viewBox="0 14.479999542236328 111.5999984741211 35.01000213623047" data-asc="0.98974609375" width="111.5999984741211" height="35.01000213623047"><defs/><g fill="#3968f3"><g transform="translate(0, 0)"><path d="M28.93 35.18L8.89 35.18L8.89 28.78L28.93 28.78L28.93 35.18M31.79 49.49L8.89 49.49Q7.57 49.49 6.01 49.02Q4.44 48.56 3.11 47.50Q1.78 46.44 0.89 44.74Q0 43.04 0 40.58L0 17.68Q0 17.02 0.24 16.43Q0.49 15.84 0.92 15.41Q1.34 14.97 1.93 14.72Q2.51 14.48 3.20 14.48L31.79 14.48L31.79 20.83L6.35 20.83L6.35 40.58Q6.35 41.82 7.01 42.48Q7.67 43.14 8.94 43.14L31.79 43.14L31.79 49.49ZM71.44 39.18Q71.44 41.06 70.96 42.57Q70.48 44.07 69.70 45.21Q68.92 46.36 67.87 47.17Q66.82 47.97 65.70 48.49Q64.58 49.00 63.42 49.24Q62.26 49.49 61.23 49.49L36.74 49.49L36.74 43.14L61.23 43.14Q63.06 43.14 64.07 42.07Q65.09 40.99 65.09 39.18Q65.09 38.31 64.82 37.57Q64.55 36.84 64.05 36.30Q63.55 35.77 62.83 35.47Q62.11 35.18 61.23 35.18L46.63 35.18Q45.09 35.18 43.31 34.63Q41.53 34.08 40.00 32.86Q38.48 31.64 37.46 29.66Q36.45 27.69 36.45 24.83Q36.45 21.97 37.46 20.01Q38.48 18.04 40.00 16.81Q41.53 15.58 43.31 15.03Q45.09 14.48 46.63 14.48L68.24 14.48L68.24 20.83L46.63 20.83Q44.82 20.83 43.81 21.92Q42.80 23.02 42.80 24.83Q42.80 26.66 43.81 27.72Q44.82 28.78 46.63 28.78L61.23 28.78L61.28 28.78Q62.30 28.81 63.45 29.06Q64.60 29.32 65.73 29.86Q66.87 30.40 67.90 31.21Q68.92 32.03 69.71 33.18Q70.51 34.33 70.97 35.82Q71.44 37.30 71.44 39.18ZM111.60 29.13Q111.60 31.30 111.06 33.01Q110.52 34.72 109.61 36.02Q108.69 37.33 107.50 38.26Q106.30 39.18 104.99 39.77Q103.69 40.36 102.36 40.63Q101.03 40.89 99.85 40.89L85.50 40.89L85.50 34.55L99.85 34.55Q101.07 34.45 102.06 34.05Q103.05 33.64 103.76 32.96Q104.47 32.28 104.86 31.31Q105.25 30.35 105.25 29.13L105.25 26.25Q105.13 25.05 104.74 24.05Q104.35 23.05 103.67 22.34Q103.00 21.63 102.05 21.23Q101.10 20.83 99.85 20.83L85.55 20.83Q84.28 20.83 83.62 21.48Q82.96 22.14 82.96 23.39L82.96 49.49L76.61 49.49L76.61 23.39Q76.61 20.95 77.50 19.24Q78.39 17.53 79.72 16.48Q81.05 15.43 82.62 14.95Q84.18 14.48 85.50 14.48L99.85 14.48Q102.00 14.48 103.71 15.03Q105.42 15.58 106.73 16.49Q108.03 17.41 108.95 18.60Q109.86 19.80 110.46 21.11Q111.06 22.41 111.33 23.74Q111.60 25.07 111.60 26.25L111.60 29.13Z"/></g></g></svg>